<svg width="20" height="20" viewBox="0 0 20 20" fill="none" xmlns="http://www.w3.org/2000/svg">
<path d="M10.9472 13.4825C11.0687 13.0725 11.2398 12.6837 11.4538 12.323C10.8152 12.1886 10.176 12.1003 9.44271 12.0657V9.47386H12.2217C12.183 10.2533 12.0638 10.9991 11.8848 11.705C12.2956 11.199 12.8001 10.7725 13.3724 10.4521C13.4144 10.1172 13.4439 9.78771 13.4598 9.47386H16.4312C16.4211 9.59078 16.4079 9.70853 16.3918 9.82605C16.8141 9.86853 17.2211 9.96212 17.6074 10.1009C17.6658 9.6914 17.696 9.27281 17.696 8.84761C17.696 3.96902 13.727 0 8.8482 0C3.96925 0 0 3.96902 0 8.84761C0 13.7262 3.96925 17.6952 8.84804 17.6952C9.71078 17.6952 10.5449 17.5709 11.3341 17.3395C10.9532 16.6225 10.7373 15.8049 10.7373 14.938C10.7373 14.7737 10.7451 14.6112 10.7602 14.451C10.4104 15.0473 10.0003 15.5599 9.44271 15.9656V13.3039C9.96029 13.3324 10.4601 13.3924 10.9472 13.4825ZM16.4312 8.23663H13.4594C13.4062 6.99941 13.2101 6.00654 12.8917 5.00108C13.5753 4.76827 14.2197 4.47876 14.8098 4.13131C15.72 5.27801 16.3067 6.58699 16.4312 8.23663ZM13.9403 3.19742C13.4782 3.44918 12.98 3.66366 12.455 3.84016C12.0723 2.97618 11.5916 2.20373 11.0322 1.5583C12.1242 1.88595 13.114 2.45196 13.9403 3.19742ZM9.44294 1.73935C10.2677 2.33918 10.7699 3.17307 11.232 4.16618C10.6552 4.28784 10.0615 4.36703 9.44294 4.40085V1.73935ZM9.44294 5.63886C10.2677 5.6001 10.974 5.50092 11.6939 5.33657C11.9782 6.2319 12.17 7.20539 12.2217 8.23644H9.44291V5.63886H9.44294ZM6.65856 1.55951C6.08778 2.21441 5.60301 2.99882 5.21886 3.87725C4.68458 3.70444 4.17712 3.49268 3.70572 3.24278C4.54062 2.47631 5.5465 1.89418 6.65856 1.55951ZM2.84418 4.18284C3.44301 4.52618 4.09585 4.81526 4.78807 5.04271C4.4798 6.03578 4.28886 7.20559 4.23729 8.2366H1.26444C1.38755 6.7932 1.95771 5.32007 2.84418 4.18284ZM1.26444 9.47386H4.23627C4.28824 10.5049 4.48043 11.6722 4.79261 12.67C4.10059 12.8971 3.44794 13.1856 2.84915 13.5287C1.95997 12.3902 1.38775 10.9173 1.26444 9.47386ZM3.71252 14.4587C4.18389 14.2091 4.69137 13.9978 5.22605 13.8252C5.60938 14.6995 6.09209 15.4816 6.65526 16.1347C5.54712 15.8007 4.54497 15.2212 3.71252 14.4587ZM8.20572 15.9658C7.58709 15.3606 6.87013 14.516 6.40637 13.512C6.98726 13.3961 7.58709 13.325 8.20572 13.2977V15.9658ZM8.20572 12.0591C7.38092 12.09 6.69487 12.1904 5.9715 12.3473C5.69085 11.4563 5.52526 10.5047 5.47454 9.47366H8.20592V12.0591H8.20572ZM8.20572 8.23663H5.47474C5.5269 7.20562 5.69291 6.25644 5.975 5.36565C6.69732 5.52235 7.38069 5.61454 8.20552 5.64569V8.23663H8.20572ZM8.20572 4.40722C7.58709 4.3802 6.99386 4.30948 6.41585 4.19484C6.87899 3.19373 7.58709 2.34951 8.20572 1.74493V4.40722Z" fill="#344AB6"/>
<path d="M14.9551 14.015C14.9551 14.1406 15.0031 14.2365 15.0988 14.3025C15.1943 14.3681 15.3395 14.4188 15.5339 14.4549V13.5938C15.3153 13.6177 15.1644 13.6663 15.0807 13.7393C14.9969 13.8125 14.9551 13.9045 14.9551 14.015Z" fill="#344AB6"/>
<path d="M16.6667 15.5911C16.5754 15.5268 16.4356 15.4783 16.2471 15.4453V16.2887C16.618 16.241 16.8034 16.1035 16.8034 15.8759C16.8034 15.7503 16.7579 15.6552 16.6667 15.5911Z" fill="#344AB6"/>
<path d="M15.882 10.8281C13.6076 10.8281 11.7637 12.6718 11.7637 14.9465C11.7637 17.2209 13.6074 19.0648 15.882 19.0648C18.1566 19.0648 20.0003 17.2211 20.0003 14.9465C20.0003 12.6718 18.1564 10.8281 15.882 10.8281ZM17.3894 16.7631C17.1217 16.9817 16.7411 17.1176 16.2476 17.1712V17.6333H15.5346V17.1936C15.2413 17.1845 14.9654 17.1584 14.7068 17.1151C14.4481 17.0718 14.2334 17.0111 14.0631 16.9334V16.0541C14.1796 16.096 14.2932 16.1325 14.4037 16.1638C14.5145 16.1952 14.6283 16.2222 14.7448 16.2447C14.8615 16.2671 14.984 16.2851 15.1125 16.2987C15.2411 16.3119 15.382 16.3201 15.5344 16.3232V15.3407C15.3459 15.3139 15.1591 15.2772 14.9735 15.2308C14.7881 15.1846 14.6213 15.1149 14.4732 15.0223C14.3252 14.9297 14.2048 14.8068 14.1121 14.6544C14.0194 14.502 13.973 14.3047 13.973 14.0624C13.973 13.8649 14.0088 13.6892 14.0806 13.5352C14.1526 13.3811 14.2557 13.2479 14.3901 13.1357C14.5246 13.0236 14.6885 12.9335 14.8813 12.8646C15.0743 12.7957 15.2916 12.7479 15.5341 12.7211V12.259H16.2472V12.7077C16.4655 12.7196 16.6876 12.7444 16.9134 12.7815C17.1392 12.819 17.3464 12.8708 17.5347 12.9364V13.8247C17.0743 13.675 16.6451 13.5913 16.2472 13.5733V14.5693C16.4356 14.5992 16.6218 14.6388 16.8058 14.6881C16.9899 14.7373 17.154 14.8093 17.2994 14.9036C17.4444 14.9978 17.5623 15.1211 17.6539 15.2737C17.7448 15.4261 17.7906 15.6218 17.7906 15.8612C17.7909 16.2443 17.657 16.5447 17.3894 16.7631Z" fill="#344AB6"/>
</svg>
